<?xml version="1.0" encoding="UTF-8"?>
<!DOCTYPE svg PUBLIC "-//W3C//DTD SVG 1.1//EN" "http://www.w3.org/Graphics/SVG/1.1/DTD/svg11.dtd">
<!-- Creator: CorelDRAW 2021 (64-Bit) -->
<svg xmlns="http://www.w3.org/2000/svg" xml:space="preserve" width="30px" height="45px" version="1.1" style="shape-rendering:geometricPrecision; text-rendering:geometricPrecision; image-rendering:optimizeQuality; fill-rule:evenodd; clip-rule:evenodd"
viewBox="0 0 30 45"
 xmlns:xlink="http://www.w3.org/1999/xlink"
 xmlns:xodm="http://www.corel.com/coreldraw/odm/2003">
 <defs>
  <style type="text/css">
   <![CDATA[
    .fil1 {fill:#FEFEFE}
    .fil0 {fill:red}
    .fil2 {fill:#2F499B;fill-rule:nonzero}
    .fil8 {fill:#4457A6;fill-rule:nonzero}
    .fil10 {fill:white;fill-rule:nonzero}
    .fil7 {fill:url(#id1);fill-rule:nonzero}
    .fil4 {fill:url(#id2);fill-rule:nonzero}
    .fil5 {fill:url(#id3);fill-rule:nonzero}
    .fil9 {fill:url(#id4);fill-rule:nonzero}
    .fil6 {fill:url(#id5);fill-rule:nonzero}
    .fil3 {fill:url(#id6);fill-rule:nonzero}
   ]]>
  </style>
      <clipPath id="id0">
       <rect x="8.71" y="8.44" width="13.26" height="13.27"/>
      </clipPath>
  <linearGradient id="id1" gradientUnits="userSpaceOnUse" x1="5.45" y1="22.16" x2="6.14" y2="22.16">
   <stop offset="0" style="stop-opacity:1; stop-color:#2F499B"/>
   <stop offset="1" style="stop-opacity:1; stop-color:#1A559A"/>
  </linearGradient>
  <linearGradient id="id2" gradientUnits="userSpaceOnUse" xlink:href="#id1" x1="5.58" y1="20.39" x2="6.61" y2="20.39">
  </linearGradient>
  <linearGradient id="id3" gradientUnits="userSpaceOnUse" xlink:href="#id1" x1="7.91" y1="21.73" x2="8.86" y2="21.73">
  </linearGradient>
  <linearGradient id="id4" gradientUnits="userSpaceOnUse" x1="20.42" y1="9.77" x2="10.19" y2="20.13">
   <stop offset="0" style="stop-opacity:1; stop-color:white"/>
   <stop offset="0.309804" style="stop-opacity:1; stop-color:#FBFBFB"/>
   <stop offset="0.611765" style="stop-opacity:1; stop-color:#EFEFEF"/>
   <stop offset="0.909804" style="stop-opacity:1; stop-color:#DBDBDB"/>
   <stop offset="0.988235" style="stop-opacity:1; stop-color:#D4D4D4"/>
   <stop offset="1" style="stop-opacity:1; stop-color:#D4D4D4"/>
  </linearGradient>
  <linearGradient id="id5" gradientUnits="userSpaceOnUse" xlink:href="#id1" x1="6.14" y1="21.04" x2="8.25" y2="21.04">
  </linearGradient>
  <linearGradient id="id6" gradientUnits="userSpaceOnUse" xlink:href="#id1" x1="20.38" y1="10.25" x2="7.22" y2="22.59">
  </linearGradient>
 </defs>
 <g id="Layer_x0020_1">
  <metadata id="CorelCorpID_0Corel-Layer"/>
  <path class="fil0" d="M14.34 0l1.33 0c1.07,0.05 2.15,0.22 3.21,0.51 1.26,0.35 2.82,0.96 3.88,1.65 1.46,0.97 2.87,2.04 3.92,3.45 0.98,1.31 1.36,1.78 2.1,3.44l0.7 2.11c0.73,2.82 0.74,6.1 -0.33,8.82 -0.63,2.68 -14.12,25.02 -14.13,25.02 -0.05,0 -12.59,-21.53 -13.35,-23.11 -0.98,-1.96 -1.67,-4.35 -1.67,-6.68 0,-0.72 0.06,-1.09 0.09,-1.76 0.05,-1.17 0.66,-3.31 1.14,-4.4 0.74,-1.66 1.11,-2.13 2.09,-3.44 0.32,-0.42 0.5,-0.6 0.87,-0.97 1.25,-1.25 2.61,-2.42 4.26,-3.12 1.36,-0.58 1.19,-0.6 2.67,-1.01 1.07,-0.29 2.14,-0.46 3.22,-0.51z"/>
  <ellipse class="fil1" cx="15" cy="15.05" rx="12.14" ry="12.64"/>
  <g id="_2662441031568">
   <g>
    <g>
     <rect class="fil2" transform="matrix(0.00671162 -0.00533146 0.00533158 0.00671147 21.8757 7.48899)" width="97.58" height="74.77"/>
     <path class="fil3" d="M22.72 10.79l-0.4 -0.5 -0.75 0.59c-0.11,-0.18 -0.24,-0.35 -0.37,-0.51l0.44 -0.35 -0.4 -0.51 -0.47 0.37c-0.12,-0.13 -0.25,-0.26 -0.39,-0.39l1.43 -1.13 -0.4 -0.5 -1.53 1.21c-1.27,-0.96 -2.85,-1.54 -4.56,-1.54 -4.16,0 -7.52,3.37 -7.52,7.52 0,1.1 0.24,2.15 0.66,3.1l-1.75 1.39 0.4 0.5 1.65 -1.31c0.09,0.16 0.18,0.32 0.28,0.47l-0.68 0.54 0.4 0.51 0.66 -0.53c0.14,0.17 0.27,0.33 0.42,0.48l-0.97 0.77 0.4 0.51 1.03 -0.83c1.33,1.2 3.09,1.92 5.02,1.92 4.15,0 7.52,-3.37 7.52,-7.52 0,-1.31 -0.34,-2.54 -0.93,-3.62l0.81 -0.64z"/>
     <rect class="fil2" transform="matrix(0.00671162 -0.00533146 0.00533158 0.00671147 22.7181 9.97154)" width="83.28" height="74.77"/>
     <rect class="fil2" transform="matrix(0.00671162 -0.00533146 0.00533158 0.00671147 21.7028 9.14576)" width="261.02" height="74.77"/>
     <rect class="fil2" transform="matrix(0.00671162 -0.00533232 0.00533244 0.00671147 23.846 7.44237)" width="45.01" height="74.77"/>
     <polygon class="fil4" points="6.64,20.41 6.24,19.91 5.59,20.43 5.99,20.93 "/>
     <polygon class="fil5" points="7.91,21.73 8.31,22.24 8.87,21.79 8.47,21.29 "/>
     <polygon class="fil6" points="7.9,20.11 6.14,21.51 6.54,22.01 8.29,20.62 "/>
     <polygon class="fil7" points="5.45,22.06 5.85,22.56 6.15,22.32 5.75,21.82 "/>
    </g>
    <path class="fil8" d="M7.79 17.76c-0.15,-0.42 -0.27,-0.87 -0.35,-1.33 -0.07,-0.45 -0.11,-0.91 -0.11,-1.38 0,-2.24 0.91,-4.27 2.38,-5.74 1.46,-1.47 3.49,-2.38 5.74,-2.38 0.75,0 1.49,0.11 2.18,0.3 0.72,0.2 1.4,0.5 2.02,0.88l-0.03 0.05c-0.62,-0.37 -1.29,-0.67 -2,-0.87 -0.69,-0.19 -1.42,-0.29 -2.17,-0.29 -2.23,0 -4.24,0.9 -5.7,2.36 -1.46,1.45 -2.36,3.47 -2.36,5.69 0,0.47 0.04,0.93 0.12,1.37 0.08,0.46 0.19,0.9 0.34,1.32l-0.06 0.02z"/>
    <path class="fil8" d="M22.69 11.66c0.24,0.52 0.43,1.07 0.56,1.65 0.12,0.56 0.18,1.14 0.18,1.74 0,2.24 -0.9,4.27 -2.37,5.74 -1.47,1.47 -3.5,2.38 -5.74,2.38 -0.92,0 -1.81,-0.15 -2.63,-0.43 -0.85,-0.3 -1.64,-0.73 -2.34,-1.27l0.04 -0.05c0.69,0.54 1.47,0.96 2.32,1.25 0.82,0.28 1.69,0.43 2.61,0.43 2.22,0 4.23,-0.9 5.69,-2.35 1.46,-1.46 2.36,-3.47 2.36,-5.7 0,-0.59 -0.06,-1.17 -0.19,-1.73 -0.12,-0.57 -0.31,-1.12 -0.55,-1.64l0.06 -0.02z"/>
    <g>
     <g style="clip-path:url(#id0)">
      <image x="8.71" y="8.44" width="13.26" height="13.27" xlink:href="Paysikka Location_Images\Paysikka Location_ImgID1.png"/>
     </g>
     <g>
      <circle class="fil9" cx="15.3" cy="15.03" r="6.5"/>
     </g>
    </g>
    <g>
     <path class="fil2" d="M13.27 20.29c-0.64,-0.26 -1.15,-0.65 -1.53,-1.16 -0.39,-0.52 -0.59,-1.14 -0.61,-1.86l2.86 0c0.05,0.41 0.19,0.72 0.43,0.94 0.24,0.21 0.56,0.32 0.94,0.32 0.4,0 0.72,-0.09 0.95,-0.28 0.23,-0.18 0.34,-0.43 0.34,-0.76 0,-0.27 -0.09,-0.5 -0.27,-0.68 -0.19,-0.17 -0.41,-0.32 -0.68,-0.44 -0.27,-0.11 -0.65,-0.24 -1.14,-0.39 -0.71,-0.22 -1.3,-0.44 -1.75,-0.66 -0.45,-0.22 -0.83,-0.55 -1.16,-0.98 -0.33,-0.43 -0.49,-0.99 -0.49,-1.68 0,-1.03 0.37,-1.83 1.12,-2.41 0.74,-0.59 1.71,-0.88 2.91,-0.88 1.22,0 2.2,0.29 2.94,0.88 0.75,0.58 1.15,1.39 1.2,2.43l-2.91 0c-0.02,-0.36 -0.15,-0.64 -0.4,-0.85 -0.24,-0.2 -0.55,-0.3 -0.92,-0.3 -0.33,0 -0.59,0.08 -0.79,0.26 -0.2,0.17 -0.3,0.42 -0.3,0.75 0,0.35 0.17,0.63 0.5,0.83 0.34,0.2 0.86,0.41 1.58,0.64 0.71,0.25 1.29,0.48 1.74,0.7 0.44,0.22 0.83,0.54 1.15,0.96 0.33,0.42 0.49,0.96 0.49,1.62 0,0.63 -0.16,1.2 -0.48,1.71 -0.32,0.52 -0.78,0.93 -1.39,1.23 -0.61,0.3 -1.33,0.46 -2.16,0.46 -0.81,-0.01 -1.53,-0.14 -2.17,-0.4z"/>
    </g>
    <g>
     <path class="fil2" d="M10.11 14.33c0.16,-0.02 0.38,-0.04 0.7,-0.04 0.32,0 0.55,0.05 0.7,0.17 0.15,0.11 0.25,0.28 0.25,0.5 0,0.21 -0.07,0.39 -0.21,0.51 -0.18,0.15 -0.44,0.22 -0.75,0.22 -0.07,0 -0.13,0 -0.18,-0.01l0 0.77 -0.51 0 0 -2.12zm0.51 0.98c0.05,0.01 0.1,0.01 0.18,0.01 0.27,0 0.44,-0.13 0.44,-0.35 0,-0.2 -0.14,-0.31 -0.41,-0.31 -0.1,0 -0.17,0 -0.21,0.01l0 0.64z"/>
     <path class="fil10" d="M15.19 15.89l-0.17 0.56 -0.54 0 0.71 -2.18 0.69 0 0.73 2.18 -0.58 0 -0.17 -0.56 -0.67 0zm0.59 -0.37l-0.15 -0.46c-0.04,-0.13 -0.08,-0.29 -0.12,-0.42l0 0c-0.04,0.13 -0.07,0.3 -0.11,0.42l-0.14 0.46 0.52 0z"/>
     <path class="fil2" d="M19.44 16.45l0 -0.88 -0.72 -1.27 0.59 0 0.24 0.52c0.07,0.16 0.12,0.27 0.17,0.41l0.01 0c0.05,-0.13 0.11,-0.26 0.18,-0.41l0.23 -0.52 0.58 0 -0.76 1.26 0 0.89 -0.52 0z"/>
     <polygon class="fil2" points="15.11,16.15 15.02,16.45 14.48,16.45 14.63,16 "/>
    </g>
   </g>
   <path class="fil8" d="M21.3 15.05c0,-1.65 -0.67,-3.15 -1.76,-4.24 -1.08,-1.08 -2.58,-1.75 -4.24,-1.75 -1.66,0 -3.15,0.67 -4.24,1.75 -1.08,1.09 -1.76,2.59 -1.76,4.24 0,1.66 0.68,3.16 1.76,4.24 1.09,1.09 2.58,1.76 4.24,1.76 1.66,0 3.16,-0.67 4.24,-1.76 1.09,-1.08 1.76,-2.58 1.76,-4.24zm-1.71 -4.28c1.09,1.09 1.77,2.61 1.77,4.28 0,1.68 -0.68,3.19 -1.77,4.29 -1.1,1.09 -2.62,1.77 -4.29,1.77 -1.67,0 -3.19,-0.68 -4.29,-1.77 -1.09,-1.1 -1.77,-2.61 -1.77,-4.29 0,-1.67 0.68,-3.19 1.77,-4.28 1.1,-1.1 2.62,-1.78 4.29,-1.78 1.67,0 3.19,0.68 4.29,1.78z"/>
  </g>
 </g>
</svg>
